# xmcd
#
# Track frame offsets: 
#        150
#        20800
#        34238
#        56689
#        93260
#        107166
#        150017
#        171639
#        189716
#        207078
#        227839
#        244714
#
# Disc length: 3531 seconds
#
# Revision: 0
# Processed by: cddbd v1.5.2PL0 Copyright (c) Steve Scherf et al.
# Submitted via: ExactAudioCopy v0.95b3
#
DISCID=9d0dc90c
DTITLE=Jimi Hendrix  - Atlanta 4-7-1970 Cd1  FLAC
DYEAR=1900
DGENRE=
TTITLE0=Fire
TTITLE1=Lover Man
TTITLE2=Spanish Castle Magic-The Breeze
TTITLE3=Red House
TTITLE4=Room Full Of Mirrors
TTITLE5=Hear My Train A Comin
TTITLE6=Message To Love
TTITLE7=All Along The Watchtower
TTITLE8=Freedom
TTITLE9=Foxy Lady
TTITLE10=Purple Haze
TTITLE11=Joe
EXTD=
EXTT0=
EXTT1=
EXTT2=
EXTT3=
EXTT4=
EXTT5=
EXTT6=
EXTT7=
EXTT8=
EXTT9=
EXTT10=
EXTT11=
PLAYORDER=
